<?xml version="1.0" encoding="UTF-8"?><svg id="Layer_1" xmlns="http://www.w3.org/2000/svg" viewBox="0 0 678.82 671.76"><defs><style>.cls-1{fill:#656565;}.cls-2{stroke-linecap:round;stroke-width:18.01px;}.cls-2,.cls-3{fill:none;stroke:#656565;stroke-miterlimit:10;}.cls-3{stroke-width:18.01px;}</style></defs><g><path class="cls-1" d="M80.38,264.83l-.02,.11,2.78,.31,1.29,.09,2.55,.39,.87,.02c.42,.06,1.06,.16,1.47,.33l1.85,.72,1.18,.07c.02-.11,.38,.38,.72,.98,.33,.7,.23,1.34,.03,1.96-.19,.51-.57,.89-.83,1.18l-1.04,1.15-.76,1.41-.89,2.25-.3,1.26-.23,1.48c-.06,.43-.23,.83-.39,1.14l-.19,.51-.51,1.23-.64,2.07-.03,1.62-.27,1.05,.06,.33c.11,.67,.12,1.32-.06,1.84l-.17,.41,.14,2.63-.07,1.18,.28,2.43,.03,1.2,.74,2.28,.6,1.07,.66,2.06,.81,1.1,1.25,2.47,2.2,1.96,.65,.75,2.4,1.34,1.12,.5,1.71,.91c.41,.17,.59,.42,.88,.68l.29,.26,1.91,.29c.42,.06,.64,.1,1.05,.27l.71,.33,1.29,.09,2.25,.23,2.86-.22,1.09-.05,2.54-.27,1.44-.21,2.74-.89,1.28-.56,2.08-1.53,.9-.95,1.76-1.58,.66-.77,.81-1.07,.69-.98,2.04-3.38,.81-1.07,.6-2.52,.06-1.08,.33-1.47-.06-.33c-.03-.55,.07-1.18,.26-1.7l.19-.51,.31-2.78-.12-1.32-.18-2.42-.14-1.22v-2.17l-.45-3.44-.03-1.2-.57-2.69s.98-2.13,1.91-2.53c.24-.18,.55-.02,.87,.02l2.25,.23,2.62,.62,1.35,.42,2.74,.52,2.76,.42c.88-.08,1.79,.38,3.04,1.44l-.02,.11,.69,1.19,.53,2.25c.07,.23,0,.65,.08,.88l.07,.99,.11,2.84,.09,.12c.22,.69,.34,1.35,.22,2.1l-.14,1.61-.21,1.38,.06,1.75c.04,.44-.04,.97-.1,1.4l-.06,.42-.08,1.94c.03,.55-.06,1.08-.24,1.59l-.02,.11-.1,1.4-.67,2.29-.1,1.4-.25,.94c-.15,.95-.47,1.67-.87,2.15l-.39,2.55-.08,.53c-.08,.53-.28,1.15-.58,1.65l-.74,1.3-.02,.11c-.19,.51-.5,1.12-.9,1.6l-.92,1.05-.85,1.28-1.07,2.01-.6,1.1-.83,1.18c-.55,.78-.95,1.27-1.78,1.69l-.02,.11-1.43,1.52c-.26,.29-.51,.47-.75,.65l-.86,.63-1.78,1.68-1.83,1.35c-.5,.47-1.1,.81-1.89,1.02l-.11-.02-1.22,.9c-.6,.34-1.08,.7-1.65,.84l-.33,.06-2.74,.89-1.14,.37-2.46,.49-1.14,.37-2.48,.6-2.87,.32-1.64,.08-2.54,.27-1.18-.07c-.32-.05-.44,.04-.76,0l-2.35-.25-1.26-.3-1.26-.3-1.26-.3-3.06-.57-1.17-.18-1.97-.62c-.51-.19-.83-.24-1.23-.51l-.5-.29-2.25-.89-.53-.08c-.64-.1-1.03-.37-1.53-.67l-1.19-.73-1.18-.83-1.93-1.6-.87-.68-1.57-1.11c-.5-.29-.66-.64-1.04-1.03l-.66-.64-.66-.64-1.01-1.24-.29-.26c-.39-.28-.96-.8-1.22-1.27l-.9-1.22-.69-1.19-1.39-2.28-1.33-1.94c-.36-.49-.52-.84-.67-1.3l-.07-.23-1.01-2.65-.35-1.25-.44-2.13c-.06-.33-.21-.79-.16-1.11l.06-.42-.74-2.28-.33-.7c-.15-.46-.39-1.04-.43-1.48l-.1-.77c-.12-.67-.04-1.2,.17-1.82l.03-.21,.07-2.6v-1.41l-.09-1.53c-.08-.88,.15-1.71,.49-2.53l.28-1.15v-1.41l.28-1.15c.02-.11,.03-.21,.05-.32l.52-1.99c-.12-.67-.09-1.53,.13-2.26l.19-.52c.2-.62,.41-1.24,.81-1.72l.26-.29,.81-2.48c.16-.3,.19-.51,.33-.71l.45-.8,1.02-1.69,.51-1.23,1.26-1.87,.57-.89c.41-.59,.92-1.05,1.59-1.17,.69-.22,1.66-.18,2.6,.07Z"/><path class="cls-1" d="M86.88,226.92l.11-.43c.11-.43,.37-.9,.72-1.32l.76-1.17,.81-1.03,.58-1.28c.21-.62,.42-.99,.92-1.46l.09,.05,.62-1.13,1.05-2.6,.88-1.6c.31-.56,.67-1.22,1.21-1.54l.28-1.19,1.57-2.2,.33-1.29,1.42-1.92,.62-1.13,.33-1.04,.32-.81c.21-.38,.37-.9,.62-1.13l.4-.51,1.18-1.93,.76-1.17,1.31-1.73c.25-.23,.5-.46,.75-.69l.4-.27,2.05-2.18,1.14-.97,1.1-1.11c.3-.33,.7-.84,1.19-1.06l.34-.18,1.98-1.61,.64-.5c.25-.23,.59-.41,1.03-.54l.83-.4c.78-.31,1.46-.43,2.18-.4l2.52-.58,.15-.04c.49-.22,1.07-.39,1.7-.42l1.49-.04,.29-.08c.62-.03,1.35,0,1.92,.07l.28,.15,1.73-.03c.24,0,.67,.12,.91,.13l.81,.32,2.15,.32,.86,.22c.19,.1,.43,.11,.71,.27l1.89,.79,1.09,.47,1.17,.76,1.13,.62,1.08,.71,2.3,1.62,.98,.9,1.92,1.41,.65,.6c.23,.25,.41,.59,.68,.98l1.13,1.96,.49,1.12,.86,1.57c.32,.54,.49,1.12,.56,1.9l.59,2.28,.31,.78c.04,.15,.03,.39,.12,.68l.25,2.46-.02,1.82,1.06,1.19,1.1,.23,1.29,.09,2.39,.33c.63-.27,1.41-.33,2.17-.16l1.24,.19,.87-.02,1.25-.05,2.6-.05,.15-.04c.73-.21,1.59-.23,2.31-.2l1.1,.23,1.06-.15,3.07,.21,1.01-.06,2.5-.1,1.49-.04,2.55,.04c.05-.09,.97,1.14,1.46,2.26,.36,.69,.09,1.4-.17,2.11l-.06,.33c-.21,.62-.52,1.18-.98,1.79l-1.42,2.16-.38,1.14-1.34,2.45-.81,1.27-1.47,2.01-.15,.28c-.36,.66-.87,1.36-1.36,1.83l-.84,.64-.76-.17c-.09-.05-.39,.03-.48-.02l-.96-.03h-2.45l-1.2-.04-1.78,.13c-.48-.02-1.01,.06-1.53-.1l-.91-.13-2.63-.34-.91-.13-2.88-.1-1.06,.15-2.4-.09c-.33-.06-.57-.07-1-.18l-.48-.02-2.21,.02-.72-.03c-.33-.06-.67-.12-.91-.13l-.96-.04-1.59,1.34-.77,1.41-.42,.99-.57,1.04c-.05,.09-.3,.33-.35,.42l-.61,.89,.84,2.05,1.22,.67,2.5,1.24,.66,.36c.28,.15,.33,.3,.51,.4l1.77,1.46,1.51,.82,2.22,1.09,1,.18,.81,.32c.09,.05,.19,.1,.28,.15l2.12,1.28,1.17,.76,2.21,1.33c.9,.37,1.45,1.16,1.99,2.19l.13,.44-.33,1.29-1.34,2.45-.65,.75-1.53,2.35-.61,.89-1.08,1.98-.02,.48c-.12,.67-.52,1.18-.78,1.65l-.87,1.36s-2.65,1.49-3.79,1.11c-.15,.04-.24,0-.33-.06l-1.28-.58c-.62-.21-1.13-.62-1.69-1.17l-2.41-1.19-1.28-.58-1.89-1.03c-.47-.26-.75-.41-1.08-.71l-.51-.4-1.74-1.07c-.38-.21-.7-.51-1.12-.86l-.19-.1-1.18-.52c-.8-.32-1.37-.63-1.93-1.17l-.09-.05-1.89-.79-1.33-.48-.85-.46-1.74-1.07c-.19-.1-.51-.4-.7-.51l-.51-.4-2.5-1.24-2.89-1.21-.47-.26c-.43-.11-.99-.42-1.32-.72l-1.59-1.11-1.28-.58-1.65-1.02c-.28-.15-.56-.31-.8-.56l-.51-.4-1.76-.59c-.52-.16-.71-.27-1.18-.52l-.19-.1-1.04-.33-1.97-1.32-1.28-.57-2.54-1.63-1.84-.88c-.38-.21-.85-.46-1.17-.76l-.57-.31-2.45-1.34-1.09-.47-2.06-1.37-1.27-.81-1.98-1.08-1.32-.72-1.7-.93c-.28-.15-.81-.32-1.04-.57l-.8-.56-.3-1.02c-.17-.58-.29-1.26,.02-1.82Zm24.1-8.74l-.51,.94,.36,2.03,1.12,.86,2.6,1.3,2.89,1.21,.57,.07c.43,.11,.99,.42,1.37,.63l1.27,.81,1.04,.57,2.25,1.48,1.26,1.05,1.95-.65,.9-.98,.62-1.13,1.23-2.02,.67-1.23,.38-1.14,1.23-2.02,.14-1.15,.47-2.43v-1.11l-.1-1.4-.74-2.24-.55-.79-1.86-1.75-.28-.15c-.71-.27-1.23-.67-1.65-1.02l-1.23-.67-1.09-.47-2.37-.81-1.36,.48-2.57,.68-1.08,.63-1.5,1.63-.61,.89-.91,1.22-.38,1.14-.65,.75c-.05,.09-.25,.23-.3,.33l-.7,.84-1.24,2.26-.63,1.37Z"/><path class="cls-1" d="M181.69,209.09l-1.01-2.82-.44-1.18-.87-2.65-.67-3.25-.47-.87-.41-2.62-.37-1.09-.77-2.88-.29-1.16-.54-1.94c-.12-.47-.16-.85-.21-1.23l-.02-.69-.91-2.05-.28-1.32-.91-2.05-.22-1.08c-.13-.31-.04-.54-.1-.77l-.17-1.84-.18-1.69-.44-2.32-.28-1.32-.82-2.27-.55-.8-.7-2.79-.23-.93-.57-2.48-.6-1.19-.57-2.48-.13-1.3,.08-.07c-.26-.63-.5-1.41-.53-2.1l-.05-.39-.44-1.17-.68-3.1-.62-2.86-.12-1.46-.44-2.32-.28-.33c-.48-.72-.67-1.27-.83-2.12l-.21-1.23-.5-1.41-.45-2.17c-.56-.65-.88-1.51-1.11-2.44l-.13-.31c-.13-.31-.02-.69-.07-1.07l-.08-.92-.87-2.65-.11-.62c-.18-.7-.21-1.23-.17-1.84l.1-.37,.24-.21,1.26,.48,.59,.2c.59,.2,1.19,.39,1.62,.73l1.53,.95,1.34,.41,1.99,.83,1.26,.48,1.69,.81c.44,.18,.73,.36,1.17,.7l.14,.16,1.99,.83c.29,.17,.58,.35,.8,.44l1.03,.53,2.23,.78,1.48,.57,2.13,1,1.35,.25,1.84,.82,1.11,.46,2.54,.65,1.33,.56,2.51,1.1,1.18,.55,2.11,1.3,1.17,.7,2.19,1.23,1.27,.32,2.35,1.09,2.31,.71c.44,.19,.96,.45,1.32,.71l.5,.42,2.37,.94,1.35,.25,1.69,.81c.29,.17,.8,.44,1.1,.62l.36,.26,2.3,.86,1.03,.53,1.64,.43c.59,.2,1.19,.39,1.7,.66l.22,.09,2.46,.72,1.25,.63,2.13,1,1.18,.55,.76,.06c.98,.15,1.93,.6,2.73,1.19l2,.68c.37,.1,.68,.13,1.04,.38l.44,.19,.74,.36s2.15,2.83,2.15,3.82c.06,.23-.1,.37-.27,.51l-.84,1c-.42,.5-1.06,.91-1.69,1.17l-.16,.14-.58,.64-2.02,1.6-1.07,1.06-.91,.92-.93,1.22-1.41,1.49c-.26,.36-.57,.49-.81,.7l-.88,.62-.47,.12c-1.23,.21-2.31,.28-3.11-.16l-1.34-.41-2.42-1.17-1.19-.39-2.48-1.4-1.27-.32-2.1,.53-1.03,.61-1.95,1.68-.89,.77-1.78,1.39-.81,.7-2.08,1.37-1.07,1.06-1.81,1.84-1,1.14c-.5,.57-1.37,1.04-2.15,1.29l-1.85,1.31-.67,.86-.84,1-.56,2.32,.39,.94,.87,2.65,.58,1.34,.87,2.65,.22,1.08c.06,.23,.19,.55,.08,.92,.04,1.53-1.02,2.44-1.82,2.98l-2.28,1.96-.74,.78-2.01,1.45-1,1.14-1.62,1.25-1.05,.76-2.09,1.52c-.66,.71-1.52,1.03-2.05,.91-.52-.11-.87-.52-.83-1.13Zm10.06-38.68l1.06-.91,2.09-1.52,.92-1.07,2.01-1.45,.67-.86,.76-.93-.21-1.23-.79-.59-2.33-1.39-1.18-.55-2.35-1.09-.58-.35c-.29-.17-.59-.2-.96-.45l-1.38-.94-1.1-.62-2.05-1.07-1.33-.56-.59,.79-.02,1.29,.81,1.43c.26,.63,.43,1.33,.53,2.1l.85,1.82c.27,.48,.23,.93,.35,1.4l.04,.54,.8,2.57,1.23,2.91,.43,1.33,1.58,.2,.74-.78Z"/><path class="cls-1" d="M266.54,87.92l-1.62,.87c-.36,.26-.96,.5-1.4,.55l-.74,.18-3.19,.69-2.42,1.19-1.36,.65-1.82,.95c-.56,.34-1.06,.53-1.74,.57l-.2,.08-2.22,1.11-1.3,.51-2.16,.97-.8,.32c-.2,.08-.54,.1-.74,.18l-.4,.16-.92,1.75,.51,1.3,.75,2.47,.87,1.62c.38,.66,.65,1.36,.69,2.04l.79,2,.91,1.14,1.75,.92,1.04-.3,2.63-.93,1.24-.38,2.53-.89,1.3-.51,1.28-.85,1.06-.54,1.26-.61,2.2-.87,.4-.16c.56-.34,1.16-.57,1.84-.61l.54-.1,.82-.56c.84-.22,1.8-.13,2.87,.25l.28,.12,.45,1.44,.91,2.29,.79,1.42,.71,1.8c.2,.5,.32,.8,.41,1.34l.1,.54,.81,1.76c.16,.4,.28,.7,.4,1l.12,.88-.36,.84c-.44,.64-1.02,1.21-1.64,1.69l-.1,.04-2.85,.67-.98,.74-2.33,.81-.78,.66-2.36,1.05-1.38,.89-2.3,.91-3.71,1.13-1.38,.31-.58,1.73,.18,1.32,.87,2.2,.57,1.16,1.35,2.24,.36,.9c.04,.1,.2,.5,.24,.6l.73,2.14,.2,1.08,.75,2.48,.5,.96,.97,2.16,.24,.6c.16,.4,.46,.86,.52,1.3l.31,1.96,1.03,2.59,.28,1.28c.1,.54,.08,1.36-.42,2.13l-.96,.5c-.2,.08-.6,.24-.8,.32l-2.08,.59-1.04,.3-2.04,1.27-.36,.26c-.36,.26-.72,.52-1.12,.67l-1.84,.61-.66,.38c-.3,.12-.6,.24-.94,.26l-2.02,.45c-.6,.24-1.7,.09-2.73-.19l-.24-.02-.69-.88-.58-1.16-.54-1.06c-.2-.5-.44-1.1-.49-1.54l-.1-.54-1.03-2.02-.28-.7c-.08-.2-.24-.6-.32-.8l-.51-1.88-2.02-5.09-.79-1.42c-.42-.76-.63-1.6-.65-2.51l-.73-2.14-.5-.96-.95-2.4-.42-.76c-.34-.56-.64-1.02-.83-1.52l-.31-1.38-.26-.36c-.38-.66-.48-1.2-.55-1.98l-.1-1.12-.71-1.22-.81-2.34-.85-1.28-.77-2.24-.71-1.22-1.07-2.12-.34-.56c-.08-.2-.14-.64-.22-.84l-.57-2.31-.67-1.12-.51-2.45-.53-1.06-.95-2.4-.58-1.16-.81-1.76c-.16-.4-.26-.94-.31-1.38l-.14-.64-1.35-2.24-.46-.86c-.08-.2-.2-.5-.28-.7l-.47-1.78-.71-1.22-.89-2.53c-.08-.2-.06-.44-.08-.78-.18-1.32,.58-2.31,1.26-2.93,.3-.12,.56-.34,.76-.42l1.66-.77,1.26-.61,1.6-.63c.4-.16,.94-.26,1.38-.31h.58l2.26-1.01,1.32-.75,2.16-.97,1.04-.3,2.2-.87,1.26-.61,1.9-.75c.3-.12,.6-.24,.94-.26l.94-.26,2.66-1.17,2.57-.79,.96-.5,2.47-.75,.86-.46,1.34-.42,1.3-.51,1.02-.63,2.77-.87,2.61-.69c.1-.04,.2-.08,.3-.12,1.7-.67,3.07,.75,3.48,1.51l1.17,2.08c.12,.3,.3,.46,.46,.86l.18,.74,1.01,1.68c.16,.4,.2,.5,.36,.9l.32,.8,.63,2.17c.12,.3,.1,.54,.12,.88l.06,1.02-.42,.98c-.3,.7-.92,1.17-1.62,1.45Z"/><path class="cls-1" d="M348.46,77.21h-1.4l-2.47,.08-1.3-.12-2.68,.1-1.15,.41-1.6,.23c-.43,.03-1.06,.19-1.5,.11l-.33-.08-2.46,.19-1.71,.24-1.6,1.63,.19,1.06-.11,2.81,.29,.95,.25,1.81c.04,.54,0,1.29-.08,1.84l-.08,.33,.36,1.91c.02,.21,.06,.75,.07,.96l-.06,.65-.24,2.49,.08,1.07,.21,2.78,.61,.92,.28,2.24c.03,.43,.04,.54,.07,.96l-.05,.76,.25,1.92c.02,.21,.05,.64,.06,.86l-.03,1.08,.29,2.45,.11,1.5-.03,2.48,.12,.1c.28,.84,.32,1.38,.28,2.24l-.11,1.41,.1,1.29,.08,2.47,.1,1.28,.17,.85c.19,1.06,.13,1.71-.14,2.38l.19,2.57,.39,.83,.16,2.14c.03,.32-.04,.86-.12,1.19l-.15,.87,.51,2.44s-.09,.22-.17,.55c-.83,1.89-2.18,2.53-2.93,2.48l-2.45,.4c-.52,.25-1.26,.42-2.02,.37h-1.51l-1.19-.12-2.26-.04-1.61,.12-1.7,.34c-.42,.14-1.06,.19-1.5,.11l-.44-.08c-1.03-.78-1.63-1.6-1.8-2.45q0-.11-.02-.21l-.3-2.56,.03-1.08-.26-2.03c-.02-.32,.06-.65,.03-.97l.14-.98-.29-2.35,.12-1.3-.41-2.55-.08-1.07v-1.29l-.4-1.15-.4-5.25-.25-1.81c-.02-.32-.07-.86,.02-1.19l.07-.54,.03-2.48-.09-1.18-.62-2.43-.02-.32c-.14-.42-.17-.85-.2-1.28l-.06-2.15-.26-3.43c-.02-.21,.06-.65,.04-.86l.04-.86,.04-2.26-.11-1.39-.14-3.33-.32-2.78-.31-1.27-.31-2.67-.21-1.38-1.16-1.1-.97-.03-1.07,.08-2.47,.08-.31,.13c-.63,.26-1.16,.3-1.8,.35l-.64,.05c-.32,.02-.65-.06-.98-.14l-.66-.17-1.17,.2-2.59-.02-1.15,.41-2.24,.28c-.32,.02-.75,.06-1.07,.08l-.54-.07c-.9-.58-1.6-1.28-1.76-1.91l.23-1.2-.61-2.32c-.02-.32-.15-.53-.18-.95l.03-.97-.28-2.24-.16-.74c-.16-.63-.18-.96-.12-1.61l.02-1.19c-.03-.43,.06-.65,.14-.98l.23-1.2c.89-1.04,1.82-1.54,2.58-1.49l1.71-.24c.43-.03,.85-.17,1.28-.1l.98,.14,2.24-.28h1.4l2.03-.15,1.26-.42,1.5-.11c.54-.04,1.18-.09,1.73,.08l.77,.16,2.15-.06,1.57-.55,2.68-.2h7.11l1.47-.44,2.37,.04,1.41,.11,2.03-.26,.63-.26c.63-.26,1.37-.43,2.12-.38h2.8l2.24-.27,1.38-.21,2.58-.09,1.28-.2,2.69-.1,.86-.06,2.36-.18s2.71,1.62,3.22,2.66c.02,.21,.03,.43,.04,.54l.27,2.13,.32,1.38,.35,1.8c.03,.43,.17,.85,.1,1.29l-.08,.33,.07,2.36,.1,1.28c.17,.85,0,1.4-.4,1.86-.4,.46-1.01,.83-1.64,1.09Z"/></g><g><path class="cls-1" d="M387.84,544.73h-.11l.33,2.78,.21,1.28,.2,2.57,.17,.85c.03,.43,.09,1.07,.01,1.51l-.27,1.96,.2,1.17c.11,0-.29,.45-.79,.92-.61,.48-1.25,.53-1.9,.47-.54-.06-1-.35-1.34-.54l-1.35-.75-1.54-.42-2.4-.35h-1.29l-1.5,.11c-.43,.03-.86-.04-1.19-.12l-.54-.07-1.31-.22-2.17-.15-1.59,.34-1.08-.02-.31,.13c-.62,.27-1.26,.42-1.8,.36l-.44-.07-2.53,.74-1.17,.2-2.3,.83-1.16,.31-2.06,1.24-.9,.83-1.85,1.12-.89,1.04-2.12,1.78-1.41,2.59-.58,.8-.76,2.65-.23,1.2-.5,1.87c-.07,.44-.27,.67-.46,1.01l-.19,.34,.15,1.93c.03,.43,.05,.64-.02,1.08l-.15,.77,.21,1.28,.29,2.24,.86,2.73,.3,1.05,.84,2.41,.54,1.36,1.49,2.47,.84,1.12,1.96,1.68,1.13,.67,1.94,1.35,.9,.47,1.23,.55,1.11,.45,3.76,1.21,1.23,.55h2.59l1.06-.18h1.51l.31-.14c.53-.15,1.17-.2,1.71-.14l.54,.06,2.77-.33,1.26-.42,2.31-.72,1.15-.42,2.12-.49,3.24-1.23,1.16-.31,2.49-1.17s2.3,.46,2.9,1.28c.23,.2,.15,.53,.18,.85l.29,2.24v2.69l-.11,1.41,.11,2.79,.22,2.78c.28,.84,.04,1.83-.71,3.29h-.11l-1,.95-2.07,1.03c-.21,.12-.63,.16-.84,.28l-.95,.29-2.74,.76-.1,.12c-.62,.37-1.24,.64-1.99,.7l-1.6,.23-1.39,.11-1.69,.46c-.42,.14-.96,.18-1.38,.22l-.43,.03-1.91,.37c-.53,.15-1.06,.19-1.61,.13h-.11l-1.38,.23-2.38-.13-1.38,.22-.97-.03c-.96,.08-1.73-.08-2.29-.36l-2.57,.21-.54,.04c-.54,.04-1.19-.01-1.74-.18l-1.43-.43h-.11c-.54-.05-1.2-.22-1.76-.5l-1.24-.66-1.44-.53-2.2-.58-1.21-.33-1.34-.54c-.89-.36-1.45-.64-2.05-1.35h-.11l-1.81-1.03c-.34-.19-.57-.39-.8-.58l-.81-.69-2.05-1.34-1.73-1.48c-.57-.39-1.04-.89-1.42-1.61v-.11l-1.16-.99c-.47-.5-.93-.9-1.19-1.41l-.13-.31-1.49-2.47-.62-1.03-1.04-2.29-.62-1.03-1.15-2.28-.97-2.72-.45-1.58-.84-2.41-.2-1.17c-.03-.32-.14-.42-.17-.74l-.29-2.35v-2.59l.02-1.29-.14-3.11-.09-1.18,.16-2.06c.06-.54,.04-.86,.22-1.31l.17-.55,.35-2.4-.04-.54c-.05-.64,.13-1.09,.3-1.64l.43-1.33,.54-1.33,1.11-2.24,.46-1.01,.72-1.78c.17-.55,.48-.79,.76-1.25l.48-.79,.48-.79,.98-1.26,.19-.34c.18-.44,.56-1.12,.96-1.48l.99-1.16,1-.94,1.9-1.88,1.58-1.74c.39-.46,.7-.7,1.11-.95l.21-.12,2.35-1.59,1.14-.63,1.97-.91c.31-.13,.72-.38,1.04-.41l.43-.03,2.06-1.24,.61-.48c.41-.25,.92-.61,1.34-.75l.73-.27c.62-.27,1.16-.31,1.81-.25l.21-.02,2.54-.53,1.37-.33,1.47-.44c.84-.28,1.7-.24,2.58-.1h1.19l1.37-.31h1.19c.11,0,.21,0,.32-.01l2.05,.05c.62-.27,1.47-.44,2.23-.39l.54,.06c.65,.06,1.3,.11,1.86,.39l.34,.19,2.6,.22c.33,.08,.54,.06,.77,.15l.88,.25,1.88,.6,1.31,.22,2.11,.8,1,.35c.67,.27,1.24,.66,1.5,1.28,.37,.62,.56,1.57,.53,2.54Z"/><path class="cls-1" d="M435.85,601.45l-.37,.24-2.24,.74-1.12,.71-2.51,.95-.78,.37c-.31,.1-.61,.2-.92,.3l-2,.44-1.09,.13-2.58,.74s-1.49-.41-2.34-.92c-.58-.37-.75-.88-1.08-1.56l-.81-1.77-.34-1.02-.78-2.68-.24-1.05-.88-1.97c-.13-.41-.24-.71-.27-1.15l-.27-1.16-.68-2.38-.61-1.16-.85-2.55-1.02-2.38c-.1-.3-.2-.61-.3-.92l-.24-1.05-.68-2.38c-.14-.41-.17-.51-.2-.95l.03-.58-1.19-2.89-1.35-2.72-.41-1.22-.78-2.34-.3-.92c-.1-.31-.07-.54-.14-.75l-.34-2.38-.41-.88-.88-1.97-.37-1.12-.1-.31-1.02-2.38-.14-.41c-.17-.51-.34-.68-.41-1.22l-.41-2.24-.58-1.39-.64-2.28-.41-1.22-.54-2.65-.61-1.16-1.02-2.38-.3-.92-.91-2.75-.34-1.02-.81-2.11c-.07-.2-.2-.61-.27-.82l-.24-1.05,.31-.44c.54-1.09,1.12-1.73,1.8-2.07l2.55-.51,1.29-.54,2.41-.91c.2-.07,.61-.2,.81-.27l2.21-.51,1.19-.51,3.74-.67s1.49,.41,2.34,.92c.44,.31,.61,.82,.81,1.43l.51,1.87,.34,1.36,.95,1.83c.1,.31,.2,.61,.34,1.02l.2,.61,.88,2.31,.37,1.12,.71,2.82,.74,1.22,.74,2.24,.27,1.15,.61,1.49c.2,.61,.41,1.22,.44,2l-.07,.14,.51,2.21,.68,1.36,.51,2.21,.13,1.09,.78,2c.07,.21,.2,.61,.27,.82l.2,.95,.91,2.07c.17,.51,.37,.78,.44,1.32l.1,.64,.85,2.55,.3,.92,.98,2.28,.58,1.39,.71,2.48,.37,1.12,.74,2.24c.14,.41,.2,.61,.24,1.05v.68l.74,1.9,.68,1.36,.61,2.51,.58,1.05,.64,2.96,.61,.82,.91,2.75,.81,2.45,.27,1.49c.24,.71,.24,1.05-.07,1.5-.34,.34-.85,.85-1.53,1.19Z"/><path class="cls-1" d="M427.89,522.91l.3-.32c.31-.32,.76-.61,1.27-.81l1.24-.66,1.2-.51,1.12-.84c.49-.44,.85-.67,1.51-.83l.06,.09,1.09-.69,2.18-1.77,1.54-.98c.54-.34,1.18-.75,1.8-.76l.82-.9,2.44-1.17,.92-.96,2.17-.99,1.09-.69,.79-.76,.67-.55c.36-.23,.76-.61,1.09-.69l.6-.25,1.96-1.12,1.24-.66,1.99-.88c.33-.08,.66-.16,.99-.25l.48-.05,2.85-.92,1.47-.29,1.5-.44c.42-.14,1.02-.39,1.56-.35h.39l2.51-.44,.81-.13c.33-.08,.72-.07,1.16,.03l.92,.05c.83,.11,1.48,.33,2.1,.7l2.49,.71,.15,.03c.54,.04,1.13,.18,1.69,.46l1.32,.69,.3,.07c.56,.28,1.18,.65,1.65,.99l.17,.27,1.53,.81c.21,.12,.53,.43,.73,.55l.55,.67,1.73,1.32,.64,.61c.12,.18,.32,.3,.49,.58l1.27,1.61,.72,.94,.66,1.24,.69,1.09,.6,1.15,1.22,2.53,.42,1.26,.99,2.17,.28,.84c.08,.33,.07,.72,.12,1.19l.04,2.26-.12,1.22v1.79c0,.62-.13,1.22-.44,1.93l-.59,2.28-.11,.83c-.03,.15-.16,.35-.22,.65l-.98,2.27-.9,1.59,.35,1.56,.85,.73,1.09,.71,1.93,1.44c.68,.08,1.39,.39,1.98,.91l1,.77,.77,.4,1.12,.56,2.3,1.21,.15,.03c.74,.17,1.51,.57,2.12,.94l.85,.73,1,.38,2.58,1.67,.91,.44,2.24,1.12,1.33,.69,2.21,1.27c.09-.06,.29,1.47,.18,2.68-.02,.77-.59,1.27-1.17,1.76l-.21,.26c-.49,.43-1.03,.78-1.72,1.09l-2.29,1.2-.88,.81-2.36,1.5-1.33,.71-2.26,1.05-.27,.17c-.63,.4-1.42,.77-2.08,.94l-1.05,.16-.58-.52c-.06-.09-.35-.16-.41-.25l-.82-.5-2.15-1.18-1.03-.62-1.62-.75c-.41-.25-.91-.44-1.29-.83l-.73-.55-2.14-1.57-.73-.55-2.47-1.49-1-.38-2.06-1.24c-.26-.21-.47-.34-.79-.64l-.41-.25-1.94-1.06-.62-.37c-.26-.21-.53-.43-.73-.55l-.82-.5-2.04,.4-1.36,.86-.85,.67-1,.63c-.09,.06-.42,.14-.51,.2l-.96,.48-.26,2.2,.75,1.18,1.59,2.3,.4,.63c.17,.27,.14,.42,.25,.6l.85,2.13,.92,1.45,1.41,2.03,.79,.64,.55,.67c.06,.09,.12,.18,.17,.27l1.23,2.14,.66,1.24,1.29,2.23c.61,.76,.71,1.71,.68,2.88l-.1,.44-.92,.96-2.36,1.5-.93,.33-2.47,1.31-.96,.48-1.9,1.21-.25,.41c-.43,.53-1.03,.78-1.48,1.07l-1.42,.77s-3.04,.02-3.85-.86c-.15-.03-.21-.12-.26-.21l-.84-1.12c-.44-.49-.69-1.09-.91-1.84l-1.53-2.21-.84-1.12-1.15-1.81c-.29-.45-.46-.72-.6-1.15l-.25-.6-1-1.78c-.23-.36-.37-.78-.57-1.29l-.12-.18-.78-1.03c-.55-.67-.9-1.21-1.12-1.96l-.06-.09-1.27-1.61-.93-1.06-.52-.82-1-1.78c-.12-.18-.25-.6-.37-.78l-.25-.6-1.59-2.3-1.94-2.46-.29-.45c-.32-.3-.67-.85-.81-1.27l-.85-1.75-.84-1.12-.95-1.69c-.17-.27-.35-.54-.43-.87l-.25-.6-1.25-1.37c-.38-.4-.49-.58-.78-1.03l-.12-.18-.76-.79-1.08-2.11-.84-1.12-1.43-2.65-1.18-1.67c-.23-.36-.52-.82-.66-1.24l-.34-.54-1.5-2.36-.72-.94-1.14-2.2-.72-1.33-1.21-1.9-.81-1.27-1.04-1.63c-.17-.27-.55-.67-.63-1l-.43-.87,.23-1.04c.13-.59,.36-1.24,.9-1.59Zm25.32,4.03l-.91,.58-.67,1.95,.57,1.29,1.64,2.39,1.94,2.46,.47,.34c.32,.31,.67,.85,.9,1.21l.71,1.33,.63,1,1.26,2.38,.59,1.53,2.02,.37,1.26-.42,1.09-.69,2.05-1.17,1.18-.75,.88-.81,2.05-1.18,.68-.94,1.59-1.9,.53-.97,.59-1.27,.44-2.31-.1-.95-.78-2.43-.17-.27c-.49-.58-.75-1.18-.94-1.69l-.75-1.18-.72-.94-1.69-1.85-1.42-.24-2.58-.65-1.25,.03-2.1,.7-.96,.48-1.38,.62-.88,.81-.93,.34c-.09,.06-.33,.08-.42,.14l-1.02,.39-2.17,1.38-1.21,.9Z"/><path class="cls-1" d="M523.5,446.47l-.07,.08,2.22,1.69,1.06,.74,1.99,1.64,.73,.46c.33,.27,.83,.68,1.09,1.04l1.22,1.56,.98,.67c.07-.08,.13,.52,.12,1.21-.08,.77-.49,1.27-.98,1.7-.42,.35-.95,.47-1.32,.59l-1.48,.45-1.37,.82-1.92,1.48-.9,.93-.96,1.16c-.27,.33-.63,.59-.92,.77l-.42,.35-1.07,.79-1.61,1.45-.86,1.38-.77,.76-.12,.32c-.24,.63-.57,1.2-1,1.54l-.36,.26-1.22,2.33-.67,.98-1.01,2.23-.59,1.05-.54,2.34-.04,1.22-.48,2.11,.13,1.36-.19,2.77,.88,2.81,.17,.98,1.37,2.38,.71,1,1,1.66c.26,.36,.29,.66,.4,1.03l.11,.37,1.49,1.23c.33,.27,.5,.41,.76,.77l.44,.64,1.06,.74,1.81,1.35,2.56,1.28,.96,.52,2.32,1.07,1.35,.56,2.81,.65,1.39,.17,2.57-.25,1.26-.35,2.32-.45,.96-.32,1.25-.5,1.1-.49,3.48-1.86,1.25-.5,1.8-1.85,.6-.9,1.04-1.09,.12-.32c.26-.48,.67-.98,1.09-1.33l.42-.35,1.69-2.22,.57-1.2,1.09-2.16,.5-1.12,1.12-1.86,1.37-3.18,.59-1.05,.89-2.6s1.93-1.33,2.94-1.2c.3-.03,.48,.26,.73,.46l1.81,1.35,1.94,1.87,.94,1.05,2.09,1.86,2.15,1.78c.8,.38,1.34,1.24,1.87,2.79l-.07,.08-.02,1.37-.7,2.2c-.05,.23-.33,.56-.38,.8l-.45,.88-1.36,2.5v.15c-.15,.7-.39,1.34-.87,1.92l-.94,1.31-.89,1.08-.84,1.53c-.19,.4-.53,.81-.81,1.14l-.27,.33-1.06,1.63c-.26,.48-.6,.9-1.02,1.24l-.07,.08-.8,1.15-1.75,1.62-.8,1.15-.7,.68c-.62,.75-1.26,1.19-1.85,1.4l-1.64,1.99-.34,.41c-.34,.42-.83,.84-1.34,1.12l-1.3,.74-.07,.08c-.42,.35-1,.71-1.59,.92l-1.33,.43-1.38,.67-1.95,1.18-1.08,.64-1.32,.58c-.88,.39-1.47,.6-2.39,.54l-.07,.08-2,.57c-.37,.11-.67,.14-.98,.17l-1.06,.1-2.39,.54-2.27,.22c-.67,.14-1.36,.13-2.15-.1l-.08-.07-1.51,.15c-.69,0-1.29,.05-1.84-.13l-.32-.12-2.81-.65-1.17-.27-2.37-.84-1.17-.27-2.44-.76-2.63-1.2-1.45-.78-2.32-1.07-.98-.67c-.25-.21-.4-.19-.65-.39l-1.89-1.42-.93-.9-.93-.9-.93-.9-2.33-2.06-.91-.75-1.37-1.55c-.35-.42-.59-.63-.79-1.07l-.28-.51-1.48-1.92-.41-.34c-.5-.41-.69-.85-.97-1.36l-.65-1.23-.58-1.32-.84-2.36-.4-1.03-.78-1.75c-.28-.51-.24-.89-.37-1.41l-.24-.89-.24-.89-.23-1.58-.11-.37c-.2-.44-.42-1.18-.39-1.72l-.15-1.51,.02-1.38-.03-2.67-.15-2.35c-.06-.6-.02-.99,.09-1.46l.05-.23,.49-2.79,.34-1.25,.72-2.05c.12-.32,.23-.78,.43-1.03l.27-.33,.54-2.34,.08-.77c.11-.47,.2-1.09,.39-1.49l.31-.72c.24-.63,.59-1.05,1.08-1.48l.14-.17,1.39-2.19,.72-1.21,.71-1.36c.38-.8,1.01-1.39,1.72-1.92l.83-.84,.72-1.21,.83-.84c.07-.08,.14-.17,.21-.25l1.46-1.44c.24-.63,.71-1.36,1.27-1.88l.42-.35c.49-.43,.99-.86,1.58-1.07l.37-.11,1.97-1.72c.29-.18,.42-.35,.64-.44l.8-.46,1.74-.93,1.07-.79,2.04-.96,.95-.47c.66-.29,1.33-.43,1.97-.19,.7,.16,1.52,.69,2.19,1.39Z"/><path class="cls-1" d="M609.39,423.86l-.79,2.7-.28,.93c-.12,.3-.25,.59-.47,.85l-1.05,1.66-.88,1.26-1,2.37-.26,1.17-1.06,2.23-.56,1.05-.9,2.42-.46,1.09-1.07,2.81-.54,1.29-.96,2.28-.42,.99-.83,1.98c-.15,.64-.44,1.33-.97,2.04l-.82,2.22-.46,1.09-.75,2.6-1.06,2.23c-.29,.69-.78,1.3-1.23,1.81-.67,.77-1.47,1.01-2.29,1.01-.58-.01-1.17-.26-1.77-.51l-1.39-.58-1.58-.67-2.33-1.1-1.13-.36-1.86-.55c-.2-.08-.59-.25-.79-.33l-.95-.52-2.22-.82-1.15-.6-2.38-1-1.4-.82-.78-.09c-.97-.18-1.72-.61-2.39-1.24l-1.67-.47c-.5-.21-.99-.42-1.34-.68l-.2-.08-2.56-.84-1.29-.54-2.33-1.1-1.37-.34-2.69-1.36-1.17-.26-1.39-.58c-.3-.12-.69-.29-.95-.52l-.85-.47-1.37-.34c-.44-.07-.89-.38-1.29-.54l-.35-.27-2.19-1.16-1.03-.32-1.03-.32-2.53-1.18-2.77-1.17-1.54-.77-2.67-1.13-2.85-.97-1.25-.64-2.79-1.41-2.79-1.41c-.1-.04-.34-.03-.44-.07-1.19-.5-1.69-1.53-1.73-2.25-.09-.62,.16-1.21,.37-1.71l.89-1.84,.56-1.05,1.03-2.71,.7-1.1,.8-2.46,.93-2.75c.17-.4,.47-.85,.94-1.12,1.05-.84,2.15-.96,2.79-.81,.24-.02,.54,.11,.64,.15l2.28,.96,1.33,.44,2.12,.78,1.19,.5,1.58,.67c.4,.17,.71,.53,1.16,.84l.45,.31,2.47,1.04,1.09,.46,1.61,.33c.3,.12,.59,.25,.99,.42l.79,.33,2.18,.92,1.17,.26,2.47,1.04,1.34,.68,1.82,.65c.4,.17,.55,.35,.85,.47l.65,.39,.3,.12c.83,.23,1.34,.68,1.95,1.17l.1,.04,.88,.14,2.23,1.06,1.39,.58,1.61,.33c.83,.23,1.29,.54,1.94,.93l1.68,.71c.49,.21,1.05,.56,1.46,.96l.16,.18,2.22,.82,1.33,.44,2.47,1.04,2.43,1.14,1.13,.36,1.27,.3,1.89-.6,.43-1.57,1.28-2.49,.2-1.31,1.49-3.8,.61-1.72c.17-.4,.38-.89,.64-1.25l.27-.35,.82-2.22,.63-1.48,.72-2.26c.08-.2,.25-.59,.33-.79l1.06-2.23c.15-.64,.5-1.19,1.09-1.75,1.12-.46,2.08-.52,2.78-.23l2.49,1.28,1.67,.47,2.01,.5c.3,.12,.59,.25,.99,.42l.79,.33,1.78,.75c.2,.08,.45,.31,.75,.43l.85,.47,.54,.93c.23,.56,.23,1.38-.18,2.37Z"/><path class="cls-1" d="M623.08,346.2l.05,1.31c.01,.76-.2,1.6-.51,2.32l-.03,.21-.54,2.53,.19,1.11-.28,2.24,.28,1.23-.19,1.49c-.07,.53-.13,1.07-.42,1.57l-.44,.92-.08,1.5c-.07,.53-.13,1.07-.43,1.68l-.03,.21,.02,2.38-.12,.96-.12,1.82c-.07,.53-.15,1.17-.43,1.68l-.16,.41-.15,2.04c-.04,.32-.07,.53-.11,.85l-.2,.73v2.49l-.11,.96-.4,2.33,.07,1.2-.07,2.26c-.04,.32-.09,.75-.13,1.06l-.54,2.53c-.04,.32-.31,.72-.45,1.02l-.32,.83-.07,2.26c.07,.33-.08,.64-.21,.84-.6,1.33-1.81,1.5-2.59,1.62l-2.94,.17-1.07-.13c-.11-.01-.32-.04-.43-.05l-2.54-.43-.33,.07c-.65,.03-1.28-.16-1.8-.34l-1.44-.62-1.26-.27-1.72-.11c-.53-.07-.85-.11-1.37-.28l-.83-.32-2.48-.1-.55,.04c-.44,.05-.98,.09-1.52,.02l-.95-.23c-.32-.04-.74-.09-1.05-.24l-.51-.28-2.7-.02h-.76c-.43-.04-.53-.06-.96-.11l-2.21-.5-1.42,.15-2.42-.52h-.87l-2.77-.35-1.37-.28-2.74-.56-1.28-.16-2.44-.42-1.4-.07-2.4,.13c-.55,.04-1.08-.03-1.61-.1l-2-.47-1.31,.05-2.41-.63-1.31,.05-2.45-.31-1.28-.16-2.53-.54c-.21-.03-.43-.05-.73-.2l-.61-.29-2.58-.11-1.29-.06-2.68-.23h-.11c-.95-.24-1.54-.64-2.24-1.16l-.58-.51,.02-.97c.04-.32-.03-.65,.13-1.07l.59-2.09,.32-1.69,.51-2.32-.16-1.32,.67-3.59-.02-1.52c.05-.43,.11-.85,.27-1.27l.08-.64,.24-2.78,.24-2.78c.07-.53,.13-1.06,.43-1.68l.19-.63,.2-2.46,.31-1.58,.24-2.78,.23-.95,.35-2.77-.04-1.41,.43-2.54-.05-.44c-.05-.44,.03-1.08,.19-1.49l.51-1.45-.13-1.53,.54-2.53s2.41-1.97,3.37-1.85c0,0-.11-.01,0,0l2.57,.22,.95,.23,2.9,.15,.53,.07c.55-.04,.97,.02,1.4,.07l1.78,.44c.53,.07,.94,.23,1.34,.5,.8,.53,1.1,1.55,1.31,2.44v.11l-.32,2.45,.02,1.52-.54,2.53,.16,1.32-.31,2.45v.97l-.38,2.01c-.05,.43-.21,.84-.38,1.25l-.29,.61-.43,2.54-.17,1.38-.27,2.13-.04,1.19,.13,2.4-.05,1.29,.65,1.71,1.49,.19,1.17,.15,2.21,.5,1.08,.03,2.45,.31,1.39,.17,1.1-.19,1.35-1.24,.47-1.13,.11-1.72c.09-.75,.29-1.48,.59-2.09l.36-2.01v-.87c-.05-.44,.02-.97,.18-1.38l.03-.21-.04-1.41,.15-1.17,.31-2.45,.33-.93,.12-1.82c.03-.21,.08-.64,.11-.85l.23-.95,.12-2.69,.13-.2c.09-.75,.42-1.57,.83-2.28l.25-.29,1.22,.59,.84,.21,2.36,.19,1.32-.16,2.57,.22,1.28,.16,1.6,.2c.43,.05,.84,.21,1.36,.39l.41,.16,.47,.6c.48,.49,.93,1.2,1.17,1.88v.11l-.34,2.56-.06,1.29-.19,2.36-.08,.64c-.04,.32-.08,.64-.12,.96l-.56,1.88-.17,1.38-.76,2.61-.28,1.37-.06,2.16,.04,.55c.07,.33,0,.87-.04,1.19l-.34,1.8,.06,1.2,1.12,1.44,1.34,.49,2.25,.18,1.4,.07,1.58,.31c.21,.03,.62,.19,.82,.32l1.04,.35,2.26,.07,1.53-.13,1.69-1.41-.16-1.32,.66-2.62,.25-1.16,.06-2.16c-.13-.67-.05-1.31,.02-1.84l.03-.21,.32-2.56,.12-.96,.28-2.24,.11-1.72,.22-2.57,.04-1.19,.46-2.76,.4-1.46,.78-2.72c.01-.11,.03-.21,.04-.32,.43-1.68,1.89-2.14,2.87-2.13,.11,.01,.32,.04,.43,.05l2.45,.31,1.08,.03,2.66,.34,1.39,.18,1.81,.23c.32,.04,.63,.19,.95,.23l.63,.19,.67,.73c.48,.49,.72,1.17,.72,2.04Z"/></g><g><circle class="cls-3" cx="387.92" cy="287.37" r="28.12"/><path class="cls-3" d="M334.65,331.14l.04,.04c1.39,1.7,2.9,3.35,4.49,4.94s3.24,3.1,4.94,4.49l.04,.04c27.08,22.3,67.19,20.79,92.51-4.53,26.93-26.93,26.93-70.56,0-97.49-26.91-26.91-70.56-26.93-97.49,0-11.35,11.35-17.9,25.65-19.68,40.45"/><path class="cls-3" d="M279.42,275.91c2.53-23.98,12.97-47.27,31.37-65.67,42.6-42.6,111.65-42.6,154.25,0,42.6,42.6,42.6,111.65,0,154.25-18.39,18.39-41.68,28.84-65.67,31.37-13.39,1.39-26.98,.33-40.04-3.2-17.79-4.82-34.58-14.21-48.55-28.17"/><circle class="cls-3" cx="290.9" cy="384.39" r="28.12"/><path class="cls-3" d="M344.15,340.64c-1.39-1.73-2.9-3.38-4.51-4.99s-3.27-3.13-4.99-4.51c-14.91-12.31-33.83-17.36-52.03-15.18-14.79,1.77-29.12,8.35-40.47,19.7-26.91,26.91-26.9,70.56,.01,97.47,26.93,26.93,70.56,26.93,97.47,.01,11.35-11.35,17.93-25.68,19.7-40.47"/><path class="cls-3" d="M368.04,307.25c-13.97-13.97-30.76-23.35-48.55-28.17-13.07-3.51-26.69-4.58-40.07-3.17-23.97,2.52-47.29,12.99-65.65,31.35-42.59,42.59-42.6,111.65,0,154.25,42.6,42.6,111.67,42.59,154.25,0,18.37-18.37,28.84-41.68,31.35-65.65"/></g><path class="cls-2" d="M272.11,275.31s-131.17,0-129.11,121.15c1.79,105.17,90.6,103.02,76.66,165.94"/></svg>