<?xml version="1.0" encoding="UTF-8"?><svg id="Layer_1" xmlns="http://www.w3.org/2000/svg" viewBox="0 0 678.82 671.76"><defs><style>.cls-1{stroke-linecap:round;stroke-width:18.01px;}.cls-1,.cls-2{fill:none;stroke:#656565;stroke-miterlimit:10;}.cls-3{fill:#656565;font-family:Brother1816Printed-ExtraBold, 'Brother 1816 Printed';font-size:107.37px;}.cls-2{stroke-width:18.01px;}</style></defs><text class="cls-3" transform="translate(139.96 340.89) rotate(-81.36)"><tspan x="0" y="0">C</tspan></text><text class="cls-3" transform="translate(150 272.65) rotate(-61.36)"><tspan x="0" y="0">R</tspan></text><text class="cls-3" transform="translate(182.75 211.3) rotate(-40.7)"><tspan x="0" y="0">A</tspan></text><text class="cls-3" transform="translate(240.16 163.53) rotate(-21.64)"><tspan x="0" y="0">F</tspan></text><text class="cls-3" transform="translate(293.39 141.91) rotate(-4.34)"><tspan x="0" y="0">T</tspan></text><text class="cls-3" transform="translate(327.37 620.09) rotate(-4.54)"><tspan x="0" y="0">C</tspan></text><text class="cls-3" transform="translate(412.65 609.27) rotate(-18.37)"><tspan x="0" y="0">I</tspan></text><text class="cls-3" transform="translate(460.97 593.48) rotate(-32.4)"><tspan x="0" y="0">R</tspan></text><text class="cls-3" transform="translate(535.63 542.33) rotate(-50.5)"><tspan x="0" y="0">C</tspan></text><text class="cls-3" transform="translate(589.07 471.81) rotate(-67.15)"><tspan x="0" y="0">L</tspan></text><text class="cls-3" transform="translate(616.04 402.67) rotate(-82.79)"><tspan x="0" y="0">E</tspan></text><g><circle class="cls-2" cx="387.92" cy="287.37" r="28.12"/><path class="cls-2" d="M334.65,331.14l.04,.04c1.39,1.7,2.9,3.35,4.49,4.94s3.24,3.1,4.94,4.49l.04,.04c27.08,22.3,67.19,20.79,92.51-4.53,26.93-26.93,26.93-70.56,0-97.49-26.91-26.91-70.56-26.93-97.49,0-11.35,11.35-17.9,25.65-19.68,40.45"/><path class="cls-2" d="M279.42,275.91c2.53-23.98,12.97-47.27,31.37-65.67,42.6-42.6,111.65-42.6,154.25,0,42.6,42.6,42.6,111.65,0,154.25-18.39,18.39-41.68,28.84-65.67,31.37-13.39,1.39-26.98,.33-40.04-3.2-17.79-4.82-34.58-14.21-48.55-28.17"/><circle class="cls-2" cx="290.9" cy="384.39" r="28.12"/><path class="cls-2" d="M344.15,340.64c-1.39-1.73-2.9-3.38-4.51-4.99s-3.27-3.13-4.99-4.51c-14.91-12.31-33.83-17.36-52.03-15.18-14.79,1.77-29.12,8.35-40.47,19.7-26.91,26.91-26.9,70.56,.01,97.47,26.93,26.93,70.56,26.93,97.47,.01,11.35-11.35,17.93-25.68,19.7-40.47"/><path class="cls-2" d="M368.04,307.25c-13.97-13.97-30.76-23.35-48.55-28.17-13.07-3.51-26.69-4.58-40.07-3.17-23.97,2.52-47.29,12.99-65.65,31.35-42.59,42.59-42.6,111.65,0,154.25,42.6,42.6,111.67,42.59,154.25,0,18.37-18.37,28.84-41.68,31.35-65.65"/></g><path class="cls-1" d="M272.11,275.31s-131.17,0-129.11,121.15c1.79,105.17,90.6,103.02,76.66,165.94"/></svg>